<?xml version="1.0" standalone="no"?>
<!DOCTYPE svg PUBLIC "-//W3C//DTD SVG 20010904//EN"
 "http://www.w3.org/TR/2001/REC-SVG-20010904/DTD/svg10.dtd">
<svg version="1.0" xmlns="http://www.w3.org/2000/svg"
 width="300.000000pt" height="300.000000pt" viewBox="0 0 300.000000 300.000000"
 preserveAspectRatio="xMidYMid meet">
<metadata>
Created by potrace 1.10, written by Peter Selinger 2001-2011
</metadata>
<g transform="translate(0.000000,300.000000) scale(0.050000,-0.050000)"
fill="#000000" stroke="none">
<path d="M3445 5159 c-25 -10 -64 -50 -87 -88 l-42 -71 -354 0 -354 0 -78 80
c-66 68 -91 80 -159 80 l-81 -1 133 -129 133 -130 380 0 380 0 70 -70 c75 -75
156 -91 240 -48 241 123 70 478 -181 377z m158 -112 c71 -64 27 -187 -68 -187
-101 0 -146 109 -75 180 49 49 95 51 143 7z"/>
<path d="M892 5142 c-15 -24 -25 -2622 -10 -2622 73 0 77 53 83 917 l5 845
151 9 151 9 92 -95 93 -95 5 -294 6 -294 -54 -50 c-105 -98 -37 -272 106 -272
142 0 210 172 108 274 -52 51 -52 53 -49 361 l3 310 -130 130 -130 129 -176
-7 -176 -7 -6 135 -6 135 246 0 247 0 198 -199 197 -198 3 -297 2 -296 -56
-53 c-99 -95 -24 -277 114 -277 132 0 197 176 101 272 -49 49 -50 55 -50 372
l0 322 -224 227 -224 227 -276 0 -276 0 0 146 0 146 330 -1 329 -1 301 -300
300 -299 0 -228 c0 -219 -2 -229 -50 -267 -108 -84 -36 -276 104 -276 54 0
166 99 166 148 0 53 -45 131 -83 143 -27 8 -37 31 -37 80 l0 69 309 0 310 0
31 -59 c90 -175 390 -102 390 95 0 207 -309 294 -390 109 -19 -44 -27 -45
-335 -45 l-315 0 0 136 0 136 -335 334 -335 334 -374 0 c-205 0 -379 -8 -384
-18z m2343 -918 c34 -43 31 -95 -6 -133 -75 -74 -189 -25 -189 82 0 94 134
129 195 51z m-915 -354 c20 -24 20 -36 0 -60 -50 -60 -121 -14 -93 60 7 17 24
30 40 30 15 0 39 -13 53 -30z m-364 -362 c8 -54 -52 -80 -92 -40 -41 40 -15
96 41 88 28 -4 47 -22 51 -48z m-386 -148 c0 -36 -12 -52 -42 -56 -47 -7 -74
37 -55 87 20 52 97 27 97 -31z"/>
<path d="M2220 4840 l330 -319 730 0 731 -1 19 -45 c72 -163 336 -126 381 53
58 228 -274 359 -381 151 l-31 -59 -705 0 -705 0 -269 270 c-258 258 -273 270
-350 269 l-80 -1 330 -318z m2069 -199 c82 -91 -35 -221 -138 -153 -54 35 -65
89 -30 153 27 51 122 51 168 0z"/>
<path d="M3380 3818 l-330 -339 -150 138 -150 138 -310 -270 c-171 -148 -348
-301 -395 -340 l-85 -69 -79 31 -79 32 -459 -365 c-412 -326 -508 -416 -477
-446 10 -10 735 385 853 465 93 62 96 49 23 -85 -118 -218 -55 -202 222 55
120 111 221 199 225 195 4 -5 -50 -96 -120 -203 l-128 -195 1244 1 c836 1
1235 8 1215 21 -16 11 -95 56 -175 100 -118 64 -159 101 -227 201 -46 68 -71
115 -56 106 16 -9 80 -51 143 -93 151 -102 200 -120 144 -54 -23 26 -108 143
-189 258 -80 116 -156 223 -168 239 -28 36 -11 27 182 -103 202 -135 201 -122
-8 89 -171 172 -188 196 -242 351 -33 91 -52 163 -44 160 9 -3 204 -202 433
-441 427 -444 528 -539 499 -464 -80 203 -107 289 -93 289 36 0 335 -348 615
-713 l44 -57 1 207 1 206 -303 317 -304 318 -51 -41 -51 -40 -201 215 c-189
201 -204 212 -244 187 -40 -25 -54 -15 -219 156 l-177 182 -330 -339z m104
-463 c-49 -174 -58 -192 -95 -183 -40 10 -237 -125 -394 -269 -66 -61 -74 -29
-10 40 180 195 417 461 474 532 88 111 89 107 25 -120z m-577 8 l75 -77 -295
-274 c-278 -260 -395 -354 -356 -289 9 15 98 144 198 287 100 143 207 298 239
345 69 101 49 100 139 8z m855 -198 c34 -79 39 -118 27 -230 l-13 -135 -247 0
c-309 0 -333 28 -117 137 92 46 170 129 229 246 52 100 72 97 121 -18z"/>
<path d="M4542 2705 c35 -63 70 -122 78 -131 7 -9 94 -13 192 -10 l178 6 -112
73 c-102 68 -339 177 -383 177 -10 0 11 -52 47 -115z"/>
<path d="M1845 1598 l5 -721 384 2 c419 3 518 20 637 110 227 174 163 576
-102 643 l-52 13 74 43 c160 90 208 251 125 412 -93 182 -220 220 -727 220
l-349 0 5 -722z m712 460 c72 -25 103 -70 103 -148 0 -131 -79 -170 -343 -170
l-177 0 0 170 0 170 177 0 c97 0 206 -10 240 -22z m-7 -557 c232 -54 224 -337
-11 -382 -49 -9 -159 -18 -244 -18 l-155 -1 0 210 0 210 165 0 c91 -1 201 -9
245 -19z"/>
<path d="M3260 1600 l0 -720 152 0 153 0 -8 283 -7 283 303 -4 302 -5 0 133 0
132 -302 -3 -303 -3 -2 182 -2 182 353 0 354 0 -2 130 -1 130 -495 0 -495 0 0
-720z"/>
</g>
</svg>
