<?xml version="1.0" encoding="UTF-8"?>
<svg version="1.1" xmlns="http://www.w3.org/2000/svg" width="1024" height="1024">
<path d="M0 0 C337.92 0 675.84 0 1024 0 C1024 337.92 1024 675.84 1024 1024 C686.08 1024 348.16 1024 0 1024 C0 686.08 0 348.16 0 0 Z " fill="#FBFBFC" transform="translate(0,0)"/>
<path d="M0 0 C165.20496894 0 165.20496894 0 183.75 4.75 C184.80437256 5.01385498 185.85874512 5.27770996 186.94506836 5.54956055 C211.59454093 11.89435326 236.45801057 23.28832267 250 46 C262.08460967 67.82079318 265.33005877 90.79832951 259 115 C252.25999802 135.73846762 237.11737265 151.91116805 218 162 C216.34309478 162.69057029 214.67867749 163.36418233 213 164 C213.52464844 164.1959375 214.04929687 164.391875 214.58984375 164.59375 C240.32739335 174.52904369 261.9920572 188.42506183 273.60595703 214.46435547 C282.50075243 235.84010187 282.16696237 260.50457984 274.20703125 282.1484375 C262.7721168 309.1629603 240.14078668 325.64578204 213.72607422 336.92285156 C208.81520202 338.863275 203.81045803 340.43746849 198.75 341.9375 C197.80535889 342.21988525 196.86071777 342.50227051 195.88745117 342.79321289 C133.00273354 360.42903873 65.31087249 347 0 347 C0 232.49 0 117.98 0 0 Z " fill="#020202" transform="translate(228,330)"/>
<path d="M0 0 C9.35316245 6.72103355 15.05033969 15.07456794 17.375 26.375 C18.39297521 37.45591046 16.26852893 47.84685887 9.078125 56.5625 C4.2766772 61.67229766 -0.31675946 65.28694867 -6.625 68.375 C-6.85872393 84.56910794 -7.03499995 100.76266798 -7.14312172 116.9580555 C-7.19466216 124.47814474 -7.26490958 131.99718544 -7.37939453 139.51660156 C-7.47914717 146.07152471 -7.5435995 152.62568857 -7.56588495 159.18134964 C-7.57891124 162.65223254 -7.60945528 166.12094362 -7.68230057 169.5911293 C-7.76301201 173.46757572 -7.76489456 177.34190856 -7.76025391 181.21923828 C-7.81418304 182.94014427 -7.81418304 182.94014427 -7.86920166 184.69581604 C-7.8277989 187.88842372 -7.70168731 190.36652021 -6.625 193.375 C-4.26032634 195.50104698 -2.02609509 196.79234467 0.85509682 198.12364006 C8.25548616 201.79860298 12.4299049 209.9892537 15.375 217.375 C19.1794385 229.14498162 17.45088746 239.8169469 12.16015625 250.92578125 C7.44139196 258.84509871 -0.96603804 265.5048267 -9.91796875 267.97265625 C-22.45868932 269.83657287 -33.29224169 268.96844531 -43.875 261.5625 C-51.77996578 255.1875276 -57.0650172 247.56688762 -58.625 237.375 C-59.11721225 229.00739178 -59.3634472 221.0508992 -55.625 213.375 C-55.23441406 212.55515625 -54.84382813 211.7353125 -54.44140625 210.890625 C-49.92110081 202.43906242 -43.49685733 196.92374293 -34.625 193.375 C-34.295 179.185 -33.965 164.995 -33.625 150.375 C-48.94173961 150.29122517 -48.94173961 150.29122517 -64.2578125 150.29101562 C-70.50625216 150.30947176 -76.75363348 150.31819943 -83.00195312 150.26879883 C-88.04051752 150.22957592 -93.07732389 150.23414736 -98.11590195 150.26892281 C-100.03681185 150.2745163 -101.95783456 150.26440101 -103.87857437 150.23823357 C-114.05353748 149.66662479 -114.05353748 149.66662479 -123.05023193 153.31790161 C-124.58600277 155.62403405 -125.56966413 157.82373425 -126.625 160.375 C-130.7785168 165.48320229 -135.42105414 169.07882693 -141.625 171.375 C-142.285 171.375 -142.945 171.375 -143.625 171.375 C-143.625 187.215 -143.625 203.055 -143.625 219.375 C-142.305 219.705 -140.985 220.035 -139.625 220.375 C-131.29236946 224.9200712 -125.09561812 232.60712265 -121.625 241.375 C-121.2125 242.40625 -120.8 243.4375 -120.375 244.5 C-118.14948573 255.9984904 -119.12383979 267.71369881 -125.1328125 277.94140625 C-132.24558049 287.71732691 -140.80004965 292.98168669 -152.625 295.375 C-162.32275043 296.6618424 -171.92268711 294.2879759 -179.9375 288.625 C-183.93435432 285.34037339 -187.59715063 281.576141 -190.625 277.375 C-190.625 276.715 -190.625 276.055 -190.625 275.375 C-222.635 275.375 -254.645 275.375 -287.625 275.375 C-288.285 277.355 -288.945 279.335 -289.625 281.375 C-295.48407941 292.09548276 -303.23844774 299.2995426 -314.9140625 303.125 C-325.30776545 305.76933432 -334.7732606 304.56538853 -344.625 300.375 C-354.74114901 294.32979749 -361.5232903 285.6801291 -365.21875 274.59375 C-365.82544185 271.28027913 -365.76871253 267.98078075 -365.75 264.625 C-365.75386719 263.94695312 -365.75773438 263.26890625 -365.76171875 262.5703125 C-365.75978516 261.55324219 -365.75978516 261.55324219 -365.7578125 260.515625 C-365.75668457 259.83056885 -365.75555664 259.1455127 -365.75439453 258.43969727 C-365.625 256.375 -365.625 256.375 -365.11669922 254.35522461 C-364.4665986 252.05446508 -364.4665986 252.05446508 -364.625 248.375 C-366.80100327 245.21789057 -369.58145693 242.89757347 -372.5 240.4375 C-374.08029339 239.03482957 -375.65972856 237.63119161 -377.23828125 236.2265625 C-378.00092285 235.56172852 -378.76356445 234.89689453 -379.54931641 234.21191406 C-382.03600347 232.01127499 -384.37495195 229.69462914 -386.6875 227.3125 C-389.20730173 224.75415445 -391.77178372 222.33456584 -394.5 220 C-397.87057743 217.112852 -401.01003864 214.03253002 -404.125 210.875 C-407.19890191 207.75920505 -410.29202168 204.71622742 -413.625 201.875 C-417.4746396 198.59334001 -421.00502309 195.02394824 -424.55419922 191.42626953 C-427.79683889 188.15661724 -431.1550617 185.10683913 -434.66015625 182.125 C-436.9408665 180.09367159 -439.05518679 177.93625031 -441.1875 175.75 C-444.76434248 172.11726935 -448.37385602 169.17894603 -452.625 166.375 C-453.5325 166.849375 -454.44 167.32375 -455.375 167.8125 C-463.71677595 171.82296921 -474.68775706 171.56700402 -483.6796875 169.76171875 C-494.64845875 165.78422502 -502.44503778 157.61981417 -507.625 147.375 C-511.8564512 137.82401014 -512.17043482 126.70990657 -508.72265625 116.84765625 C-503.52621981 105.14180477 -495.55782557 97.12768856 -483.625 92.375 C-474.67845056 89.33195597 -461.05940261 90.28867736 -452.625 94.375 C-442.41988088 100.08058933 -435.39307959 108.27334615 -431.625 119.375 C-430.68515029 123.15929551 -430.46102024 126.73004767 -430.4375 130.625 C-430.42203125 132.34783203 -430.42203125 132.34783203 -430.40625 134.10546875 C-430.6142216 137.21390139 -431.24055998 139.11540436 -432.4375 141.9375 C-433.12628673 144.10084745 -433.12628673 144.10084745 -432.625 146.375 C-429.41247273 150.31817427 -425.6166379 153.40295415 -421.69873047 156.62402344 C-417.95274461 159.78698678 -414.42833612 163.18667325 -410.875 166.5625 C-410.15151367 167.2438501 -409.42802734 167.9252002 -408.68261719 168.62719727 C-403.56646961 173.44980499 -398.53372586 178.34040938 -393.625 183.375 C-386.04613578 177.08615522 -379.14140221 170.27829546 -372.80078125 162.7421875 C-370.9455098 160.72370545 -369.04846003 158.87259467 -367.04296875 157.0078125 C-366.40061279 156.40026123 -365.75825684 155.79270996 -365.09643555 155.16674805 C-363.80028586 153.94764503 -362.48816033 152.74526894 -361.15942383 151.56176758 C-359.41255452 149.90509563 -357.93217993 148.39783312 -356.625 146.375 C-356.56764868 142.87342992 -356.56764868 142.87342992 -357.625 139.375 C-358.40567133 126.82026926 -357.35689518 117.19587941 -349.23828125 107.18359375 C-342.54623877 99.68137664 -334.83765567 95.08238159 -324.6796875 93.92578125 C-312.66967989 93.37629443 -302.61538926 96.21632076 -293.625 104.375 C-293.08101562 104.86484375 -292.53703125 105.3546875 -291.9765625 105.859375 C-285.43724746 112.5646625 -282.36479555 121.83037127 -282.125 131.0625 C-282.66298158 142.82730774 -286.8077559 152.10785911 -295.4375 160.1875 C-302.89714356 166.34670761 -310.82379717 168.50943776 -320.375 168.5625 C-321.52484375 168.57667969 -322.6746875 168.59085938 -323.859375 168.60546875 C-327.625 168.375 -327.625 168.375 -329.76318359 167.62207031 C-332.21529417 166.76753885 -334.02124051 166.28541358 -336.625 166.375 C-340.27001495 168.59520909 -342.91809199 171.58778368 -345.75 174.75 C-346.50925781 175.55050781 -347.26851562 176.35101562 -348.05078125 177.17578125 C-352.16319051 181.54300416 -356.10192541 186.05649925 -360.03515625 190.58447266 C-362.28502302 193.11833673 -364.64977047 195.49532155 -367.0625 197.875 C-367.92746094 198.7309375 -368.79242188 199.586875 -369.68359375 200.46875 C-370.32425781 201.0978125 -370.96492187 201.726875 -371.625 202.375 C-365.42467412 209.81539105 -358.75290415 216.54163763 -351.38671875 222.83203125 C-349.72684189 224.28580366 -348.16566019 225.79641586 -346.625 227.375 C-345.96113281 227.17003906 -345.29726563 226.96507812 -344.61328125 226.75390625 C-343.28876953 226.34978516 -343.28876953 226.34978516 -341.9375 225.9375 C-341.06738281 225.67066406 -340.19726562 225.40382813 -339.30078125 225.12890625 C-327.46032316 221.79283558 -315.58931817 223.1256837 -304.671875 228.9453125 C-298.61463628 233.17613191 -293.05858856 238.80784518 -289.625 245.375 C-289.625 246.035 -289.625 246.695 -289.625 247.375 C-258.275 247.375 -226.925 247.375 -194.625 247.375 C-193.965 244.735 -193.305 242.095 -192.625 239.375 C-188.22912979 229.45906981 -181.19938402 223.16219201 -171.625 218.375 C-171.295 202.535 -170.965 186.695 -170.625 170.375 C-172.275 169.715 -173.925 169.055 -175.625 168.375 C-183.88812717 163.5791458 -190.56676825 155.44164764 -193.18359375 146.17578125 C-195.19348229 133.42277164 -194.51412415 121.58712621 -186.79296875 110.8203125 C-179.60172338 102.16812379 -170.99759323 97.31677318 -159.77734375 96.0546875 C-149.52862997 95.6496 -139.29690047 98.05560361 -131.33203125 104.74609375 C-126.24123111 109.60390533 -122.09326725 114.6961592 -119.625 121.375 C-119.625 122.365 -119.625 123.355 -119.625 124.375 C-91.245 124.375 -62.865 124.375 -33.625 124.375 C-33.58375 115.25875 -33.5425 106.1425 -33.5 96.75 C-33.44175049 92.44654541 -33.44175049 92.44654541 -33.38232422 88.05615234 C-33.39416809 85.77439018 -33.40970642 83.49264291 -33.4296875 81.2109375 C-33.40011963 80.03249268 -33.37055176 78.85404785 -33.34008789 77.63989258 C-33.39681965 74.26399382 -33.53683687 71.57293064 -34.625 68.375 C-36.98790612 66.18228945 -39.19508248 64.89325721 -42.11331177 63.54141235 C-50.38272931 59.70114641 -54.34000079 51.46623968 -57.625 43.375 C-60.27049533 33.30608442 -59.42773449 22.59568016 -54.625 13.375 C-49.33266532 4.62931165 -41.11174965 -2.35786868 -31.16796875 -5.19140625 C-20.08613854 -7.0809349 -9.61064652 -5.89409326 0 0 Z " fill="#020202" transform="translate(754.625,620.625)"/>
<path d="M0 0 C7.20071379 2.06093728 13.03588344 9.19939044 18.05859375 14.48828125 C20.63640008 17.03374951 23.35799666 19.37771132 26.09326172 21.75170898 C30.2416125 25.40476953 34.2258636 29.23433093 38.23828125 33.03515625 C42.17894304 36.7526165 46.18776069 40.36545213 50.27832031 43.91699219 C53.45668864 46.71211929 56.53247732 49.61391392 59.61328125 52.515625 C63.76582857 56.41045974 67.92624139 60.28877219 72.17578125 64.078125 C77.31967819 68.6724236 82.33038222 73.40460825 87.35302734 78.13037109 C91.723185 82.23648335 96.14228888 86.27758965 100.6171875 90.26953125 C104.02745902 93.35453097 107.38209944 96.49700691 110.73828125 99.640625 C116.5100919 105.04469461 122.33779893 110.37695696 128.23828125 115.640625 C136.6815123 123.20805899 145.04544316 130.85971082 153.38671875 138.5390625 C154.42040016 139.4897712 155.45425217 140.44029445 156.48828125 141.390625 C157.24057007 142.08212646 157.24057007 142.08212646 158.00805664 142.78759766 C160.82017 145.36486444 163.66335267 147.8982011 166.55078125 150.390625 C169.6753663 153.09645123 172.57797392 155.96206564 175.4765625 158.90625 C177.86815227 161.26071976 180.39644898 163.43426864 182.9375 165.625 C185.74601236 168.08542849 188.49286619 170.61041078 191.23828125 173.140625 C195.18440558 176.77368155 199.16650115 180.35618745 203.21484375 183.875 C205.73542742 186.07442822 208.24030966 188.29054106 210.73828125 190.515625 C211.59421875 191.27617187 212.45015625 192.03671875 213.33203125 192.8203125 C213.96109375 193.42101562 214.59015625 194.02171875 215.23828125 194.640625 C215.23828125 194.970625 215.23828125 195.300625 215.23828125 195.640625 C59.80828125 195.640625 -95.62171875 195.640625 -255.76171875 195.640625 C-247.69600701 187.57491326 -239.35789826 180.03511095 -230.4765625 172.88671875 C-227.6549838 170.5523191 -224.95581163 168.12071902 -222.26171875 165.640625 C-217.79186755 161.52683591 -213.17126982 157.66975203 -208.4453125 153.85546875 C-205.81463318 151.68429673 -203.28229451 149.43821143 -200.76171875 147.140625 C-196.46180084 143.22171248 -192.00252328 139.54891631 -187.48046875 135.890625 C-183.98263724 132.99586789 -180.64386471 129.94472961 -177.2890625 126.88671875 C-174.69209482 124.57874902 -172.02767862 122.38506637 -169.32421875 120.203125 C-164.54455137 116.33771186 -160.01666782 112.25676453 -155.49609375 108.09375 C-152.89863933 105.76346232 -150.23766161 103.56815332 -147.51171875 101.390625 C-142.83893763 97.62290191 -138.44461092 93.62430089 -134.07421875 89.515625 C-133.42880127 88.91121582 -132.78338379 88.30680664 -132.1184082 87.68408203 C-129.47303483 85.20325668 -126.83875175 82.71551157 -124.23828125 80.1875 C-123.56539062 79.55328125 -122.8925 78.9190625 -122.19921875 78.265625 C-121.39291016 77.48058594 -121.39291016 77.48058594 -120.5703125 76.6796875 C-117.82510023 75.10252451 -115.87655813 75.27554408 -112.76171875 75.640625 C-109.9453125 77.03125 -109.9453125 77.03125 -107.19921875 78.890625 C-106.29042969 79.49390625 -105.38164062 80.0971875 -104.4453125 80.71875 C-101.80701793 82.60818367 -99.27388724 84.58727933 -96.76171875 86.640625 C-93.41128478 85.18873906 -91.25685679 83.3586591 -88.71484375 80.75390625 C-87.95171875 79.97982422 -87.18859375 79.20574219 -86.40234375 78.40820312 C-85.6134375 77.59802734 -84.82453125 76.78785156 -84.01171875 75.953125 C-82.45697003 74.36339444 -80.89969979 72.77612577 -79.33984375 71.19140625 C-78.6530957 70.48669189 -77.96634766 69.78197754 -77.25878906 69.0559082 C-75.2713302 67.13354503 -73.26046485 65.33631374 -71.16308594 63.53979492 C-66.310553 59.32485372 -61.79399858 54.78644309 -57.27099609 50.22506714 C-55.72479135 48.66588773 -54.17529979 47.11003879 -52.625 45.55493164 C-49.33438892 42.25299364 -46.04774913 38.94712084 -42.76171875 35.640625 C-38.9483537 31.80351024 -35.13329726 27.96810825 -31.31396484 24.13693237 C-29.80095823 22.61753034 -28.29103905 21.09510797 -26.78125 19.57250977 C-22.11767579 14.88444157 -17.40725531 10.31281036 -12.36914062 6.02539062 C-10.95218113 4.80470498 -9.60082042 3.50874913 -8.26171875 2.203125 C-5.4851267 0.46775497 -3.29370873 -0.17367956 0 0 Z " fill="#010101" transform="translate(513.76171875,99.359375)"/>
<path d="M0 0 C83.82 0 167.64 0 254 0 C254 21.78 254 43.56 254 66 C194.93 66 135.86 66 75 66 C75 91.74 75 117.48 75 144 C121.53 144 168.06 144 216 144 C216 164.79 216 185.58 216 207 C169.47 207 122.94 207 75 207 C75 253.2 75 299.4 75 347 C50.25 347 25.5 347 0 347 C0 232.49 0 117.98 0 0 Z " fill="#020202" transform="translate(544,330)"/>
<path d="M0 0 C13.344375 -0.061875 26.68875 -0.12375 40.4375 -0.1875 C44.61591553 -0.21481201 48.79433105 -0.24212402 53.09936523 -0.27026367 C58.2911377 -0.28381348 58.2911377 -0.28381348 60.73890686 -0.28633118 C62.41068433 -0.29087022 64.08245341 -0.30127626 65.75416565 -0.31672668 C80.0047772 -0.44159027 95.72798866 -0.39192534 108.5625 6.625 C109.22032471 6.97272461 109.87814941 7.32044922 110.5559082 7.67871094 C119.09163223 12.42795855 124.68338184 19.13255746 128.15234375 28.29296875 C131.06403738 41.02659663 130.3906652 54.84078465 123.71484375 66.18359375 C115.58172993 78.1680428 103.08546965 82.5940047 89.43206978 85.5761528 C85.60783764 86.24261809 81.8647004 86.26265888 77.99194336 86.22705078 C76.69677591 86.22741239 76.69677591 86.22741239 75.37544346 86.2277813 C72.61346764 86.22630271 69.85177052 86.21113754 67.08984375 86.1953125 C65.37146128 86.19236754 63.65307701 86.19032989 61.93469238 86.18920898 C55.60226735 86.1787741 49.26988086 86.15085159 42.9375 86.125 C21.6834375 86.063125 21.6834375 86.063125 0 86 C0 57.62 0 29.24 0 0 Z " fill="#FBFBFC" transform="translate(303,529)"/>
<path d="M0 0 C20.06331774 -0.12032643 20.06331774 -0.12032643 28.66015625 -0.14648438 C34.51066317 -0.16437074 40.36102832 -0.18545883 46.21142578 -0.22631836 C50.93173393 -0.25907643 55.6518899 -0.27688753 60.37230301 -0.28463173 C62.16710427 -0.29014585 63.96189784 -0.30091312 65.75663376 -0.31719017 C79.23799036 -0.43451923 89.93529675 -0.08120285 100.5625 9.25 C109.77297865 19.64130925 110.83372772 30.36786829 110.18652344 43.76660156 C109.41508904 53.00361975 104.91673747 60.026454 98 66 C85.43996378 74.94071114 71.35108397 75.44533917 56.54296875 75.29296875 C55.08679552 75.28854393 53.63061746 75.28549203 52.17443848 75.28381348 C46.84538501 75.26824662 41.51643448 75.22636386 36.1875 75.1875 C24.245625 75.125625 12.30375 75.06375 0 75 C0 50.25 0 25.5 0 0 Z " fill="#FCFCFC" transform="translate(303,393)"/>
<path d="M0 0 C2.00012391 5.92440241 3.99323244 11.85113076 5.98144531 17.77954102 C6.65886103 19.79668759 7.33789016 21.81329308 8.01855469 23.8293457 C8.99577143 26.72467081 9.96719886 29.62188236 10.9375 32.51953125 C11.24373291 33.42274612 11.54996582 34.325961 11.86547852 35.25654602 C12.14576904 36.09719101 12.42605957 36.937836 12.71484375 37.80395508 C12.96355225 38.54341873 13.21226074 39.28288239 13.46850586 40.04475403 C14 42 14 42 14 45 C11.57976518 45.93085954 9.15952366 46.86170161 6.73925781 47.79248047 C4.48460043 48.65973333 2.23004775 49.52725842 -0.02441406 50.39501953 C-6.32936002 52.82133781 -12.63551975 55.24438035 -18.94487 57.65922546 C-22.21361796 58.91054094 -25.4818116 60.16329931 -28.74984741 61.41647339 C-30.41784923 62.05596401 -32.08600139 62.69506259 -33.75430298 63.33377075 C-42.55388372 66.70446852 -51.33574258 70.10850523 -60.0625 73.6640625 C-60.76582458 73.94978119 -61.46914917 74.23549988 -62.19378662 74.52987671 C-65.48526553 75.86828365 -68.77193359 77.21677768 -72.05175781 78.58349609 C-73.19483398 79.05094238 -74.33791016 79.51838867 -75.515625 80 C-76.50852539 80.4125 -77.50142578 80.825 -78.52441406 81.25 C-81 82 -81 82 -84 81 C-83.319375 80.505 -82.63875 80.01 -81.9375 79.5 C-79.61409475 77.52263383 -77.87198766 75.74655757 -75.9375 73.4375 C-73.0403122 70.0409916 -69.94007735 67.06058381 -66.61572266 64.08276367 C-60.22026382 58.2889714 -54.12242805 52.22578212 -48.05100632 46.09560585 C-46.16208661 44.18897225 -44.26936779 42.28618152 -42.37564087 40.38432312 C-37.00239405 34.98687291 -31.63520017 29.58343079 -26.27197266 24.17602539 C-22.96853315 20.84589647 -19.6603116 17.52058162 -16.34904861 14.19823265 C-15.09280055 12.93577006 -13.83845402 11.67141236 -12.5860405 10.40514565 C-10.84878392 8.64879676 -9.105568 6.89858042 -7.36083984 5.1496582 C-6.8445401 4.62459686 -6.32824036 4.09953552 -5.79629517 3.55856323 C-2.22790196 0 -2.22790196 0 0 0 Z " fill="#FAFBFB" transform="translate(502,175)"/>
<path d="M0 0 C3.89086057 2.13615875 6.66835616 4.22367769 9 8 C9.78603808 12.3363101 9.96134985 16.91707531 8.0859375 20.98046875 C5.32645266 24.58560217 2.39523376 26.20885792 -2 27 C-7.30070448 26.81401037 -10.23965076 25.76034924 -14 22 C-16.5385322 17.75129874 -16.67150636 13.83484576 -16 9 C-12.76402356 2.27912586 -7.53069449 -1.09822628 0 0 Z " fill="#FAFAFA" transform="translate(432,871)"/>
<path d="M0 0 C3.20083553 1.64614399 5.24803524 3.97459352 7.375 6.875 C8.72774814 11.47434368 8.54889026 15.46378716 6.4375 19.75 C4.02263387 23.5253541 1.3395466 24.8231738 -3 26 C-8.68079642 26.10144279 -11.54837205 24.20122853 -15.6171875 20.5703125 C-17.78669375 18.10663591 -18.0085858 15.90899051 -18.3125 12.6875 C-17.88361804 7.62669283 -15.92018086 4.7159063 -12.1640625 1.359375 C-8.33973723 -1.04290874 -4.35166726 -0.74129348 0 0 Z " fill="#FAFAFA" transform="translate(289,739)"/>
</svg>
